<?xml version="1.0" encoding="UTF-8" standalone="no"?>
<svg
   xmlns:dc="http://purl.org/dc/elements/1.1/"
   xmlns:cc="http://creativecommons.org/ns#"
   xmlns:rdf="http://www.w3.org/1999/02/22-rdf-syntax-ns#"
   xmlns:svg="http://www.w3.org/2000/svg"
   xmlns="http://www.w3.org/2000/svg"
   xmlns:sodipodi="http://sodipodi.sourceforge.net/DTD/sodipodi-0.dtd"
   xmlns:inkscape="http://www.inkscape.org/namespaces/inkscape"
   fill="none"
   stroke="#000"
   stroke-width="2.5"
   viewBox="0 0 348 348"
   id="svg2985"
   version="1.1"
   inkscape:version="0.48.4 r9939"
   width="100%"
   height="100%"
   sodipodi:docname="Simon Sends.svg">
  <metadata
     id="metadata3001">
    <rdf:RDF>
      <cc:Work
         rdf:about="">
        <dc:format>image/svg+xml</dc:format>
        <dc:type
           rdf:resource="http://purl.org/dc/dcmitype/StillImage" />
      </cc:Work>
    </rdf:RDF>
  </metadata>
  <defs
     id="defs2999" />
  <sodipodi:namedview
     pagecolor="#ffffff"
     bordercolor="#666666"
     borderopacity="1"
     objecttolerance="10"
     gridtolerance="10"
     guidetolerance="10"
     inkscape:pageopacity="0"
     inkscape:pageshadow="2"
     inkscape:window-width="1839"
     inkscape:window-height="1177"
     id="namedview2997"
     showgrid="true"
     inkscape:zoom="2.7506775"
     inkscape:cx="108.5939"
     inkscape:cy="174.8663"
     inkscape:window-x="-8"
     inkscape:window-y="-8"
     inkscape:window-maximized="1"
     inkscape:current-layer="svg2985">
    <inkscape:grid
       type="xygrid"
       id="grid3771"
       empspacing="5"
       visible="true"
       enabled="true"
       snapvisiblegridlinesonly="true"
       spacingx="10px"
       spacingy="10px" />
  </sodipodi:namedview>
  <path
     stroke-width="2"
     d="M5.08 5.776h336.91v337.67H5.08z"
     id="path2987" />
  <path
     stroke-width="2"
     d="M282.734 40.554c0-8.376 6.966-15.165 15.56-15.165 4.126 0 8.084 1.594 11 4.44 2.92 2.842 4.56 6.7 4.56 10.722 0 8.376-6.967 15.165-15.56 15.165-8.594 0-15.56-6.79-15.56-15.166z"
     id="path2989" />
  <path
     d="M-10 38h130l150 100h80"
     color="#000"
     id="path2991" />
  <path
     fill="#e8e8e8"
     d="M177.543 52.485c-9.144-6.196-21.58-3.805-27.776 5.339-6.195 9.144-3.805 21.58 5.34 27.776l57.95 39.265c9.144 6.196 21.58 3.805 27.776-5.339 6.195-9.144 3.805-21.58-5.34-27.776l-57.95-39.265z"
     color="#000"
     id="path2993" />
  <path
     d="M20 198h50v50H20zm0-60h50v50H20zm0-60h50v50H20zm60 120h50v50H80zm0-60h50v50H80zm60 60h50v50h-50zm60 0h50v50h-50zm60 0h50v50h-50zM20 268h310v60H20z"
     id="path2995" />
  <path
     sodipodi:type="arc"
     style="color:#000000;fill:#808080;fill-opacity:1;stroke:#000000;stroke-width:2;stroke-linecap:butt;stroke-linejoin:miter;stroke-miterlimit:4;stroke-opacity:1;stroke-dasharray:none;stroke-dashoffset:0;marker:none;visibility:visible;display:inline;overflow:visible;enable-background:accumulate"
     id="path3773"
     sodipodi:cx="55"
     sodipodi:cy="43"
     sodipodi:rx="25"
     sodipodi:ry="25"
     d="M 80,43 A 25,25 0 1 1 30,43 25,25 0 1 1 80,43 z"
     transform="translate(0,-5)" />
</svg>
